<?xml version="1.0" encoding="UTF-8"?>
<svg id="Camada_1" data-name="Camada 1" xmlns="http://www.w3.org/2000/svg" viewBox="0 0 1920 300">
  <defs>
    <style>
      .cls-1 {
        fill: #e30613;
      }

      .cls-2 {
        fill: #ededed;
      }
    </style>
  </defs>
  <g>
    <path class="cls-2" d="M41.82,226.41v-18.23h94.44c6.87,0,12.52-1.26,16.96-3.78,4.44-2.52,6.65-6.7,6.65-12.53s-2.22-10.01-6.65-12.54c-4.44-2.52-10.09-3.78-16.96-3.78h-57.34c-7.9,0-15.01-1.06-21.33-3.19-6.32-2.13-11.32-5.62-15-10.48-3.68-4.86-5.51-11.36-5.51-19.51s1.84-14.6,5.51-19.37c3.68-4.77,8.67-8.17,15-10.21,6.32-2.04,13.43-3.05,21.33-3.05h94.99v18.23h-97.36c-6.26,0-11.29,1.23-15.09,3.69-3.8,2.46-5.7,6.03-5.7,10.71s1.9,8.27,5.7,10.76c3.8,2.49,8.83,3.74,15.09,3.74h57.89c8.08,0,15.47,1.16,22.15,3.46,6.69,2.31,12.02,6.02,16,11.12,3.98,5.1,5.97,11.91,5.97,20.42s-1.99,15.21-5.97,20.28c-3.98,5.08-9.31,8.72-16,10.94-6.69,2.22-14.07,3.33-22.15,3.33H41.82Z"/>
    <path class="cls-2" d="M201.28,226.41c-7.6,0-14.57-1.32-20.92-3.97-6.35-2.64-11.43-6.62-15.22-11.94-3.8-5.32-5.7-11.93-5.7-19.83s1.9-14.55,5.7-19.78c3.8-5.23,8.92-9.15,15.36-11.76,6.44-2.61,13.58-3.92,21.42-3.92h70.28v-2.28c0-7.05-2.58-12.97-7.75-17.78-5.17-4.8-13.4-7.2-24.7-7.2h-73.29v-18.23h73.29c10.39,0,19.42,1.85,27.07,5.56,7.66,3.71,13.58,8.8,17.78,15.27,4.19,6.47,6.29,13.93,6.29,22.38v73.47h-18.69v-11.3h-1.82c-2.8,2.92-5.82,5.2-9.07,6.84-3.25,1.64-6.67,2.8-10.26,3.46-3.59.67-7.35,1-11.3,1h-38.47ZM239.75,208.18c11.3,0,19.54-2.51,24.7-7.52,5.16-5.01,7.75-11.59,7.75-19.74v-7.48h-71.2c-7.11,0-12.7,1.5-16.77,4.51-4.07,3.01-6.11,7.25-6.11,12.72s2.01,9.83,6.02,12.9c4.01,3.07,9.33,4.6,15.95,4.6h39.65Z"/>
    <path class="cls-2" d="M271.96,226.41v-116.69h19.83v11.21h1.82c2.86-2.86,5.89-5.1,9.12-6.75,3.22-1.64,6.62-2.79,10.21-3.46,3.59-.67,7.35-1,11.3-1h24.52c9.05,0,17.06,1.46,24.02,4.38,6.96,2.92,12.56,7.17,16.82,12.76h1.82c4.31-5.59,9.95-9.85,16.91-12.76,6.96-2.92,14.96-4.38,24.02-4.38h24.43c10.39,0,19.42,1.88,27.07,5.65,7.66,3.77,13.58,9.06,17.78,15.86,4.19,6.81,6.29,14.8,6.29,23.98v71.2h-18.69v-71.2c0-8.14-2.57-14.72-7.7-19.74-5.14-5.01-13.39-7.52-24.75-7.52h-24.43c-11.37,0-19.61,2.51-24.75,7.52-5.14,5.01-7.7,11.59-7.7,19.74v71.2h-18.69v-71.2c0-8.14-2.58-14.72-7.75-19.74-5.17-5.01-13.4-7.52-24.7-7.52h-24.52c-11.3,0-19.54,2.51-24.7,7.52-5.17,5.01-7.75,11.59-7.75,19.74v71.2h-19.83Z"/>
    <path class="cls-2" d="M488.9,226.41V63.05h18.6v57.89h1.82c2.86-2.86,5.89-5.1,9.12-6.75,3.22-1.64,6.62-2.79,10.21-3.46,3.59-.67,7.35-1,11.3-1h24.8c12.46,0,23.25,2.16,32.36,6.47,9.12,4.32,16.18,10.79,21.2,19.42,5.01,8.63,7.52,19.45,7.52,32.45s-2.51,23.82-7.52,32.45c-5.01,8.63-12.08,15.1-21.2,19.42-9.12,4.32-19.9,6.47-32.36,6.47h-24.8c-3.95,0-7.72-.33-11.3-1-3.59-.67-6.99-1.82-10.21-3.46-3.22-1.64-6.26-3.89-9.12-6.75h-1.82v11.21h-18.6ZM564.75,208.18c28.32,0,42.48-13.37,42.48-40.11s-14.16-40.11-42.48-40.11h-24.8c-11.3,0-19.54,2.51-24.7,7.52-5.17,5.01-7.75,11.59-7.75,19.74v25.71c0,8.14,2.58,14.72,7.75,19.74,5.16,5.01,13.4,7.52,24.7,7.52h24.8Z"/>
    <path class="cls-2" d="M646.66,226.41c-7.6,0-14.57-1.32-20.92-3.97-6.35-2.64-11.43-6.62-15.22-11.94-3.8-5.32-5.7-11.93-5.7-19.83s1.9-14.55,5.7-19.78c3.8-5.23,8.92-9.15,15.36-11.76,6.44-2.61,13.58-3.92,21.42-3.92h70.28v-2.28c0-7.05-2.58-12.97-7.75-17.78-5.17-4.8-13.4-7.2-24.7-7.2h-90.52l-25.74-18.23h116.26c10.39,0,19.42,1.85,27.07,5.56,7.66,3.71,13.58,8.8,17.78,15.27,4.19,6.47,6.29,13.93,6.29,22.38v73.47h-18.69v-11.3h-1.82c-2.8,2.92-5.82,5.2-9.07,6.84-3.25,1.64-6.67,2.8-10.26,3.46-3.59.67-7.35,1-11.3,1h-38.47ZM685.13,208.18c11.3,0,19.54-2.51,24.7-7.52,5.16-5.01,7.75-11.59,7.75-19.74v-7.48h-71.2c-7.11,0-12.7,1.5-16.77,4.51-4.07,3.01-6.11,7.25-6.11,12.72s2.01,9.83,6.02,12.9c4.01,3.07,9.33,4.6,15.95,4.6h39.65Z"/>
  </g>
  <path class="cls-2" d="M1164.08,225.69c-11.8,0-22.07-2.05-30.8-6.16-8.74-4.11-15.49-10.27-20.26-18.48-4.77-8.21-7.16-18.51-7.16-30.89s2.39-22.68,7.16-30.89c4.77-8.21,11.53-14.37,20.26-18.48,8.73-4.11,19-6.16,30.8-6.16h73.75c11.86,0,22.14,2.05,30.85,6.16,8.71,4.11,15.44,10.27,20.22,18.48,4.77,8.21,7.16,18.51,7.16,30.89s-2.39,22.68-7.16,30.89c-4.77,8.21-11.51,14.37-20.22,18.48-8.71,4.11-18.99,6.16-30.85,6.16h-73.75ZM1237.83,208.33c26.95,0,40.43-12.72,40.43-38.18s-13.48-38.18-40.43-38.18h-73.75c-26.96,0-40.43,12.73-40.43,38.18s13.48,38.18,40.43,38.18h73.75Z"/>
  <path class="cls-2" d="M1277.99,225.69v-111.06h17.7v10.67h1.74c2.72-2.72,5.61-4.86,8.68-6.42,3.07-1.56,6.3-2.66,9.72-3.3,3.41-.64,7-.96,10.76-.96h81.73c9.89,0,18.48,1.79,25.77,5.38,7.29,3.59,12.93,8.62,16.92,15.1,3.99,6.48,5.99,14.09,5.99,22.82v67.77h-17.79v-67.77c0-7.75-2.44-14.01-7.33-18.79-4.89-4.77-12.74-7.16-23.56-7.16h-81.73c-10.76,0-18.6,2.39-23.51,7.16-4.92,4.77-7.38,11.03-7.38,18.79v67.77h-17.7Z"/>
  <path class="cls-1" d="M1487.29,225.69c-9.83,0-18.41-1.79-25.73-5.38-7.32-3.59-12.97-8.62-16.96-15.1-3.99-6.48-5.99-14.08-5.99-22.82v-58.48h-1.74c0,1.27-1.01,2.94-3.04,4.99-2.03,2.05-4.8,3.08-8.33,3.08h-19.09v-17.35h32.19v-31.06h17.79v39.13h1.74c0-1.27,1.01-2.93,3.04-4.99,2.02-2.05,4.8-3.08,8.33-3.08h104.9v17.35h-118v50.41c0,7.75,2.46,14.01,7.38,18.79,4.92,4.77,12.75,7.16,23.51,7.16h91.63v17.35h-91.63Z"/>
  <path class="cls-2" d="M1737.07,225.69c-11.8,0-22.07-2.05-30.8-6.16-8.74-4.11-15.49-10.27-20.26-18.48-4.77-8.21-7.16-18.51-7.16-30.89s2.39-22.68,7.16-30.89c4.77-8.21,11.52-14.37,20.26-18.48,8.73-4.11,19-6.16,30.8-6.16h73.75c11.86,0,22.14,2.05,30.85,6.16,8.7,4.11,15.44,10.27,20.22,18.48,4.77,8.21,7.16,18.51,7.16,30.89s-2.39,22.68-7.16,30.89c-4.77,8.21-11.51,14.37-20.22,18.48-8.71,4.11-18.99,6.16-30.85,6.16h-73.75ZM1810.82,208.33c26.95,0,40.43-12.72,40.43-38.18s-13.48-38.18-40.43-38.18h-73.75c-26.96,0-40.43,12.73-40.43,38.18s13.48,38.18,40.43,38.18h73.75Z"/>
  <path class="cls-1" d="M1869.04,225.69V64.39h17.7v161.3h-17.7Z"/>
  <path class="cls-1" d="M1044.93,225.69c-12.21,0-22.75-2.05-31.63-6.16-8.88-4.11-15.72-10.27-20.52-18.48-4.8-8.21-7.2-18.51-7.2-30.89s2.4-22.68,7.2-30.89c4.8-8.21,11.64-14.37,20.52-18.48,8.88-4.11,19.42-6.16,31.63-6.16h117.05v17.35h-117.05c-13.88,0-24.28,3.12-31.19,9.37-6.91,6.25-10.37,15.79-10.37,28.63s3.46,22.44,10.37,28.81c6.91,6.36,17.31,9.54,31.19,9.54h117.05v17.35h-117.05Z"/>
  <path class="cls-1" d="M1561.43,225.69v-111.06h17.7v10.67h1.74c2.72-2.72,5.61-4.86,8.68-6.42,3.07-1.56,6.3-2.66,9.72-3.3,3.41-.64,7-.96,10.76-.96h39.05c9.83,0,18.39,1.79,25.68,5.38,7.29,3.59,12.93,8.62,16.92,15.1,3.99,6.48,5.99,14.09,5.99,22.82h-17.7c0-7.75-2.46-14.01-7.38-18.79-4.92-4.77-12.75-7.16-23.51-7.16h-39.05c-10.76,0-18.6,2.39-23.51,7.16-4.92,4.77-7.38,11.03-7.38,18.79v67.77h-17.7Z"/>
  <g>
    <g>
      <path class="cls-1" d="M894.04,169.44c.2.2.34.61.37.9l-.05,6.31c-.56,1.09-1.94.81-2.96,1.1-3.64,1.04-5.73,4.93-4.85,8.57.11.47.46,1.05.51,1.46.02.17.01.18-.16.16l-7.38-7.51c5.96-10.6-3.2-23.23-15.18-20.97-8.96,1.69-13.96,11.57-10.2,19.89,3.51,7.77,13.14,10.65,20.46,6.3l7.64,7.6c-.12.16-.16.17-.36.14-.31-.05-1.03-.49-1.48-.61-3.99-1.06-7.86,1.49-8.72,5.47-.21.99.11,2.51-1.23,2.72-.91.14-3.63.1-4.6.01-1.67-.16-1.26-1.85-1.72-3.1-1.62-4.41-6.9-6.01-10.76-3.35-.93.64-1.49,1.79-2.76.86-.84-.61-2.28-2.07-3.07-2.85-.33-.32-1.49-1.38-1.56-1.73-.21-.9.54-1.32.94-1.97,2.52-4.08.67-9.47-4.01-10.75-.75-.2-1.68-.15-2.28-.36-.43-.15-.72-.49-.81-.94.12-1.94-.19-4.12-.01-6.03.15-1.56,1.3-1.18,2.42-1.42,4.74-.98,7.11-6.22,4.77-10.48-.63-1.14-1.95-1.71-.98-3.06.38-.53,2.76-2.93,3.28-3.3,1.16-.82,2.26.71,3.38,1.23,4.06,1.87,8.63-.38,9.78-4.63.2-.75.18-1.96.44-2.52.16-.35.5-.59.88-.65.87-.13,3.92-.12,4.82,0,.21.02.48.11.64.24.59.46.57,2.06.86,2.87,1.52,4.16,6.39,5.9,10.25,3.72,1.07-.61,1.92-2.18,3.21-1.27,1.24,1.44,3.25,2.71,4.44,4.11.87,1.03-.21,1.73-.69,2.48-2.54,4-.65,9.41,3.93,10.73.77.22,2.37.2,2.81.64Z"/>
      <circle class="cls-1" cx="867.12" cy="173.46" r="7.18"/>
    </g>
    <path class="cls-1" d="M832.33,228.51c-12.1,0-22.55-2.03-31.35-6.11-8.8-4.07-15.58-10.18-20.34-18.32-4.76-8.14-7.14-18.35-7.14-30.62s2.38-22.48,7.14-30.62c4.76-8.14,11.54-14.25,20.34-18.32,8.8-4.07,19.25-6.11,31.35-6.11h116.04v17.2h-116.04c-13.76,0-24.07,3.1-30.92,9.29-6.85,6.19-10.28,15.66-10.28,28.39s3.43,22.25,10.28,28.56c6.85,6.31,17.16,9.46,30.92,9.46h116.04v17.2h-116.04Z"/>
  </g>
</svg>