<?xml version="1.0" encoding="UTF-8"?>
<svg id="Camada_1" data-name="Camada 1" xmlns="http://www.w3.org/2000/svg" viewBox="0 0 1080 1080">
  <defs>
    <style>
      .cls-1 {
        fill: #95c11f;
      }
    </style>
  </defs>
  <path class="cls-1" d="M489.43,298.33c-24.44,11.98-43.32,28.79-56.65,50.42-13.33,21.64-19.99,47.04-19.99,76.21v2.82h-.69v.95h-95.81v57.96h52.74c11.78,0,21.05-3.43,27.82-10.29,6.76-6.85,10.14-12.41,10.14-16.66h5.11v339.91h60.09v-240.55c2.45-19.75,10.4-36.17,23.87-49.24,13.47-13.07,33.5-20.79,60.06-23.17h57.47c26.68,2.38,46.73,10.09,60.12,23.17,16.36,15.98,24.55,36.95,24.55,62.9h59.56c0-29.24-6.68-54.71-20.05-76.41-2.06-3.35-4.3-6.54-6.63-9.66h17.79v-57.96h-132.2c-7.08-.62-14.36-.95-21.89-.95h-20.05c-6.76,0-13.34.33-19.76.95h-39.08c-11.79,0-21.06,3.43-27.82,10.29-6.77,6.86-10.14,12.42-10.14,16.66h-5.79v-30.72c0-25.88,8.16-46.8,24.49-62.74,16.32-15.94,42.55-23.91,78.67-23.91h188.36v-57.95h-188.36c-32.84,0-61.48,5.99-85.92,17.97Z"/>
  <path class="cls-1" d="M378.15,377.04c6.95-37.81-23.56-75.09-61.31-78.2-4.85,37.65,23.11,74.56,61.31,78.2Z"/>
</svg>