<?xml version="1.0" encoding="UTF-8"?>
<svg id="Camada_1" data-name="Camada 1" xmlns="http://www.w3.org/2000/svg" xmlns:xlink="http://www.w3.org/1999/xlink" viewBox="0 0 1080 1080">
  <defs>
    <style>
      .cls-1 {
        fill: url(#Gradiente_sem_nome_267-2);
      }

      .cls-2 {
        fill: url(#Gradiente_sem_nome_267);
      }
    </style>
    <linearGradient id="Gradiente_sem_nome_267" data-name="Gradiente sem nome 267" x1="193.09" y1="540" x2="886.91" y2="540" gradientUnits="userSpaceOnUse">
      <stop offset="0" stop-color="#1b243b"/>
      <stop offset=".37" stop-color="#192238"/>
      <stop offset=".59" stop-color="#161d30"/>
      <stop offset=".76" stop-color="#0f1422"/>
      <stop offset=".92" stop-color="#06080e"/>
      <stop offset="1" stop-color="#000"/>
    </linearGradient>
    <linearGradient id="Gradiente_sem_nome_267-2" data-name="Gradiente sem nome 267" x1="211.68" y1="281.27" x2="272.76" y2="281.27" xlink:href="#Gradiente_sem_nome_267"/>
  </defs>
  <path class="cls-2" d="M828.72,336.59v35.19h-5.68c-8.71-9.08-18.12-16.18-28.24-21.29-10.13-5.11-20.77-8.7-31.93-10.79-5.44-1.01-11.02-1.77-16.73-2.29h0l-345.37-1.18c-11.62,0-20.76,3.36-27.42,10.06-6.67,6.71-10,12.15-10,16.3h-5.71v-127.83h-58.56v101.47h-105.98v56.69h62.85c11.61,0,20.76-3.36,27.42-10.06,6.66-6.71,10-12.14,10-16.3h5.71v191.04c0,28.54,6.57,53.38,19.71,74.55,13.14,21.17,31.75,37.6,55.85,49.32,24.09,11.72,52.32,17.57,84.7,17.57h9.45c7.21.52,14.56.85,22.17.85h236.72c6.38,0,12.59-.29,18.67-.85l14.65-1.97h0c.62-.11,1.26-.19,1.88-.3,11.16-2.08,21.81-5.72,31.93-10.93,10.12-5.2,19.54-12.25,28.24-21.15h5.68v38.89c0,25.36-8,45.84-23.98,61.45-15.99,15.61-41.68,23.42-77.06,23.42h-405.61v56.77h405.61c32.36,0,60.46-5.87,84.3-17.6,23.84-11.74,42.29-28.2,55.35-49.39,13.06-21.2,19.59-46.08,19.59-74.65v-367h-58.19ZM828.72,558.27c0,25.36-8,45.84-23.98,61.45-13.1,12.79-32.72,20.33-58.84,22.64h-274.53c-75.1-5.93-112.68-47.28-112.68-124.12,0-83.26,44.09-124.89,132.27-124.89h236.72c35.38,0,61.07,7.8,77.06,23.42,15.99,15.61,23.98,36.1,23.98,61.45v80.04Z"/>
  <path class="cls-1" d="M269.81,255.82c1.65.17,2.9,1.57,2.91,3.23,0,.54,0,1.09.02,1.63.55,21.67-7.94,43.36-27.21,54.57-.59.34-2.97,1.75-3.44,1.66-.8-.17-3.68-2.02-4.56-2.57-9.54-6-16.73-14.73-20.8-25.25-3.68-9.53-5.47-19.91-4.98-30.15.08-1.62,1.31-2.94,2.92-3.11,9.21-.94,18.1-4.38,25.69-9.61,1.11-.77,2.58-.78,3.7-.02,7.66,5.18,16.5,8.69,25.74,9.64Z"/>
</svg>