<?xml version="1.0" encoding="UTF-8"?>
<svg id="Camada_1" data-name="Camada 1" xmlns="http://www.w3.org/2000/svg" viewBox="0 0 268.96 308.07">
  <defs>
    <style>
      .cls-1 {
        fill: #1d1d1b;
      }
    </style>
  </defs>
  <path class="cls-1" d="M137.99,10.62h7.48v29.39l45.1-29.39c22.84,14.41,38.61,25.95,47.32,34.62,8.71,8.67,14.45,16.8,17.21,24.38,2.76,7.59,4.14,18.75,4.14,33.48v103.53l-49.98,44.37c-13.35-5.42-24.9-9.37-34.66-11.86-9.76-2.49-19.47-4.12-29.13-4.88v63.55h-60.62v-66.47c-16.24.98-29.66,3.41-40.26,7.31-10.61,3.9-21.27,10.13-31.98,18.69l-5.28-6.42c14.84-16.12,27.63-27.42,38.36-33.91,10.73-6.49,23.78-11.3,39.17-14.44-.11-14.73-2.01-26.57-5.69-35.51-3.68-8.94-10.35-17.07-19.99-24.38-9.64-7.31-21.94-12.97-36.89-16.98v-6.83c7.68-3.81,14.49-7.68,20.44-11.6l42.13-27.68v-11.35c0-10.59-1.03-18.35-3.08-23.27-2.06-4.92-5.9-9-11.52-12.25-5.63-3.24-11.85-4.87-18.67-4.87-7.47,0-15.8,2.76-24.99,8.29l-4.31-5.12c7.58-7.01,15.03-12.17,22.35-15.46,7.31-3.29,15.41-4.94,24.3-4.94,9.86,0,18.83,2.09,26.9,6.26,8.07,4.17,13.82,9.37,17.23,15.6,3.41,6.23,5.23,14.65,5.44,25.27l19.5-13.32V10.62ZM84.84,88.71l-35.43,23.49c7.37,3.25,13.65,6.69,18.85,10.32,5.2,3.63,10.73,8.43,16.58,14.38v-48.2ZM137.99,53.47l-19.5,12.93v224.26h19.5V53.47ZM145.46,101.31c8.13,5.48,15.2,9.26,21.21,11.34,6.01,2.08,12.43,3.12,19.26,3.12s13.3-1.04,19.42-3.12c6.12-2.08,13.3-5.86,21.54-11.34-.11-9.31-1.52-17.06-4.22-23.23-2.71-6.17-8.46-12.83-17.28-19.98-8.82-7.15-21.77-15-38.86-23.56l-21.07,13.97v52.8ZM145.46,160.31c8.67-4.77,16.06-8.07,22.19-9.91,6.12-1.84,12.38-2.76,18.77-2.76s12.54.89,18.45,2.68c5.9,1.79,13.25,5.12,22.02,10v-50.55c-8.99,5.27-16.5,8.8-22.51,10.61-6.01,1.81-12.54,2.71-19.58,2.71s-12.9-.82-18.53-2.47c-5.63-1.65-12.57-4.89-20.8-9.72v49.41ZM145.46,202.56c12.78.43,25.38,2.3,37.79,5.61,12.41,3.31,26.95,8.91,43.64,16.82v-55.42c-8.13-5.53-15.17-9.29-21.13-11.3-5.96-2-12.41-3.01-19.34-3.01s-13.41,1-19.42,3.01c-6.01,2.01-13.19,5.77-21.54,11.3v32.99Z"/>
</svg>